#!OML:ASF H:\Dans Jumps\Project 1\Capture day 1\Session 1\subject.ASF
:FULLY-SPECIFIED
:DEGREES
108
root 0.379923 17.5967 -14.0399 5.89339 -0.198129 -1.4103
lowerback -2.49494 -0.709382 0.554623
upperback 3.7801 -1.0607 1.75813
thorax 5.33307 -0.543266 1.43535
lowerneck -11.8925 0.662035 -1.86112
upperneck 34.9329 1.5324 -0.189947
head 13.8254 0.389786 0.481311
rclavicle -8.34896e-015 8.34896e-015
rhumerus -23.6442 -14.3509 -82.84
rradius 24.0824
rwrist 31.8164
rhand -20.0116 -26.9836
rfingers 7.12502
rthumb 6.32861 -56.8691
lclavicle -8.34896e-015 8.34896e-015
lhumerus -19.844 -7.14298 92.5154
lradius 20.1212
lwrist 4.36515
lhand -26.1341 -4.21926
lfingers 7.12502
lthumb 0.416199 25.7601
rfemur -12.8791 -3.85817 20.0931
rtibia 20.954
rfoot -12.8979 -1.09263
rtoes 17.8142
lfemur -11.7 6.39172 -17.8953
ltibia 18.5159
lfoot -10.9462 3.40507
ltoes 3.06225
109
root 0.380562 17.5963 -14.0425 5.89564 -0.197303 -1.41472
lowerback -2.48376 -0.709847 0.557601
upperback 3.78734 -1.06137 1.75691
thorax 5.33421 -0.543471 1.43248
lowerneck -11.8933 0.65885 -1.86032
upperneck 34.9216 1.52574 -0.185712
head 13.8205 0.387675 0.481814
rclavicle 8.54774e-015 -9.14409e-015
rhumerus -23.6299 -14.3478 -82.8453
rradius 24.0925
rwrist 31.796
rhand -20.0002 -27.0123
rfingers 7.12502
rthumb 6.33964 -56.8974
lclavicle 8.54774e-015 -9.14409e-015
lhumerus -19.8356 -7.16179 92.5045
lradius 20.1451
lwrist 4.39244
lhand -26.1222 -4.10825
lfingers 7.12502
lthumb 0.427677 25.8711
rfemur -12.8979 -3.85084 20.096
rtibia 20.9666
rfoot -12.8941 -1.09912
rtoes 17.8109
lfemur -11.7271 6.40061 -17.8943
ltibia 18.5415
lfoot -10.9477 3.39355
ltoes 3.05415
110
root 0.381229 17.5959 -14.0454 5.89651 -0.190729 -1.42148
lowerback -2.46884 -0.712473 0.563233
upperback 3.79478 -1.06506 1.75693
thorax 5.33346 -0.545094 1.42922
lowerneck -11.8951 0.655581 -1.86062
upperneck 34.9094 1.5193 -0.181589
head 13.8154 0.385506 0.482499
rclavicle -2.98177e-015 -9.14409e-015
rhumerus -23.6149 -14.3446 -82.8498
rradius 24.1013
rwrist 31.7787
rhand -19.9851 -27.0389
rfingers 7.12502
rthumb 6.35421 -56.9236
lclavicle -2.98177e-015 -9.14409e-015
lhumerus -19.8299 -7.16853 92.4904
lradius 20.1764
lwrist 4.41494
lhand -26.1119 -3.97439
lfingers 7.12502
lthumb 0.43767 26.0049
rfemur -12.9151 -3.84968 20.1017
rtibia 20.9794
rfoot -12.891 -1.10425
rtoes 17.8031
lfemur -11.7562 6.4066 -17.8904
ltibia 18.5711
lfoot -10.9516 3.38014
ltoes 3.03908
111
root 0.38189 17.5955 -14.0481 5.89645 -0.180549 -1.42868
lowerback -2.4515 -0.716158 0.570773
upperback 3.80112 -1.07016 1.75642
thorax 5.33016 -0.547329 1.42428
lowerneck -11.8898 0.651325 -1.86594
upperneck 34.8928 1.51106 -0.173371
head 13.8067 0.382524 0.485372
rclavicle 2.26615e-014 -1.63003e-014
rhumerus -23.607 -14.3421 -82.8542
rradius 24.1086
rwrist 31.7669
rhand -19.9936 -27.0411
rfingers 7.12502
rthumb 6.34598 -56.9261
lclavicle 2.26615e-014 -1.63003e-014
lhumerus -19.8221 -7.15654 92.4702
lradius 20.1882
lwrist 4.41959
lhand -26.1115 -3.96866
lfingers 7.12502
lthumb 0.438022 26.0106
rfemur -12.93 -3.84949 20.1082
rtibia 20.9925
rfoot -12.8906 -1.11232
rtoes 17.7887
lfemur -11.786 6.41211 -17.8856
ltibia 18.6049
lfoot -10.9613 3.3619
ltoes 3.02472
112
root 0.382511 17.5951 -14.0511 5.89666 -0.165937 -1.43689
lowerback -2.43031 -0.721007 0.57773
upperback 3.80669 -1.07679 1.75767
thorax 5.32393 -0.550381 1.42143
lowerneck -11.8834 0.646825 -1.87374
upperneck 34.875 1.50301 -0.164863
head 13.7972 0.379361 0.488815
rclavicle 3.08116e-015 -1.03368e-014
rhumerus -23.601 -14.3377 -82.8565
rradius 24.1164
rwrist 31.7581
rhand -19.9985 -27.0431
rfingers 7.12502
rthumb 6.34127 -56.9282
lclavicle 3.08116e-015 -1.03368e-014
lhumerus -19.8164 -7.1374 92.4499
lradius 20.2013
lwrist 4.42112
lhand -26.1194 -3.97302
lfingers 7.12502
lthumb 0.430395 26.0063
rfemur -12.9458 -3.84865 20.1161
rtibia 21.0065
rfoot -12.8919 -1.12448
rtoes 17.7844
lfemur -11.8198 6.41424 -17.8793
ltibia 18.6425
lfoot -10.9724 3.34267
ltoes 3.01747
113
root 0.383065 17.5946 -14.0544 5.89693 -0.149367 -1.44668
lowerback -2.40497 -0.726248 0.58488
upperback 3.81266 -1.08394 1.7599
thorax 5.31577 -0.553703 1.4195
lowerneck -11.8838 0.642988 -1.87573
upperneck 34.8602 1.49692 -0.162929
head 13.7907 0.37688 0.488954
rclavicle -4.17448e-015 -5.96354e-015
rhumerus -23.5974 -14.3253 -82.8607
rradius 24.1297
rwrist 31.7423
rhand -19.9989 -27.0524
rfingers 7.12502
rthumb 6.34084 -56.9375
lclavicle -4.17448e-015 -5.96354e-015
lhumerus -19.8107 -7.11644 92.4284
lradius 20.2145
lwrist 4.42411
lhand -26.1333 -3.97884
lfingers 7.12502
lthumb 0.417036 26.0005
rfemur -12.9634 -3.84252 20.1261
rtibia 21.0226
rfoot -12.895 -1.14309
rtoes 17.7868
lfemur -11.8568 6.41409 -17.8709
ltibia 18.6837
lfoot -10.9835 3.32529
ltoes 3.01711
114
root 0.383602 17.5941 -14.0578 5.89838 -0.132763 -1.45475
lowerback -2.37845 -0.73094 0.589641
upperback 3.81854 -1.09019 1.76202
thorax 5.30686 -0.55668 1.41887
lowerneck -11.885 0.640155 -1.87447
upperneck 34.8457 1.49286 -0.164879
head 13.7845 0.375193 0.487278
rclavicle 1.0635e-014 7.95139e-016
rhumerus -23.5975 -14.3055 -82.8657
rradius 24.1477
rwrist 31.7193
rhand -19.9968 -27.0641
rfingers 7.12502
rthumb 6.3429 -56.9491
lclavicle 1.0635e-014 7.95139e-016
lhumerus -19.8057 -7.0969 92.4073
lradius 20.2275
lwrist 4.4326
lhand -26.1485 -3.97743
lfingers 7.12502
lthumb 0.402331 26.0019
rfemur -12.9847 -3.83233 20.1342
rtibia 21.0423
rfoot -12.8991 -1.16623
rtoes 17.794
lfemur -11.8986 6.41154 -17.8647
ltibia 18.7294
lfoot -10.994 3.31194
ltoes 3.01332
115
root 0.384181 17.5934 -14.0614 5.90159 -0.119997 -1.46237
lowerback -2.34994 -0.73388 0.594305
upperback 3.8237 -1.09404 1.76397
thorax 5.29601 -0.558462 1.41833
lowerneck -11.89 0.638347 -1.86857
upperneck 34.835 1.49105 -0.171927
head 13.781 0.374355 0.483127
rclavicle 2.127e-014 -7.15625e-015
rhumerus -23.6014 -14.2783 -82.8715
rradius 24.1695
rwrist 31.6881
rhand -19.9998 -27.0712
rfingers 7.12502
rthumb 6.34001 -56.9564
lclavicle 2.127e-014 -7.15625e-015
lhumerus -19.8007 -7.07917 92.3866
lradius 20.2386
lwrist 4.44528
lhand -26.1576 -3.96075
lfingers 7.12502
lthumb 0.393542 26.0186
rfemur -13.0118 -3.81717 20.1414
rtibia 21.0667
rfoot -12.9029 -1.19088
rtoes 17.7993
lfemur -11.9451 6.40863 -17.8598
ltibia 18.7793
lfoot -11.0032 3.30465
ltoes 3.00716
116
root 0.384788 17.5925 -14.0652 5.90734 -0.111686 -1.47012
lowerback -2.32175 -0.734965 0.598668
upperback 3.8297 -1.09544 1.76651
thorax 5.28619 -0.559058 1.41872
lowerneck -11.899 0.637902 -1.86189
upperneck 34.8247 1.49165 -0.180303
head 13.7785 0.374481 0.478696
rclavicle -1.26228e-014 -1.19271e-015
rhumerus -23.6054 -14.2423 -82.8777
rradius 24.1945
rwrist 31.6484
rhand -20.0001 -27.0744
rfingers 7.12502
rthumb 6.33968 -56.9595
lclavicle -1.26228e-014 -1.19271e-015
lhumerus -19.7937 -7.05851 92.3661
lradius 20.2486
lwrist 4.45761
lhand -26.1618 -3.9363
lfingers 7.12502
lthumb 0.38944 26.0431
rfemur -13.0462 -3.79969 20.1487
rtibia 21.0965
rfoot -12.9065 -1.21531
rtoes 17.7914
lfemur -11.9974 6.40863 -17.8556
ltibia 18.8336
lfoot -11.0117 3.29931
ltoes 2.98784
117
root 0.385502 17.5916 -14.0691 5.91519 -0.108464 -1.47625
lowerback -2.29268 -0.734079 0.602778
upperback 3.8357 -1.09414 1.76812
thorax 5.27578 -0.5583 1.4185
lowerneck -11.9095 0.638477 -1.85357
upperneck 34.8145 1.49376 -0.18979
head 13.7765 0.375329 0.473771
rclavicle 1.66979e-014 -1.51076e-014
rhumerus -23.6098 -14.2057 -82.8838
rradius 24.2197
rwrist 31.6063
rhand -20.0055 -27.0676
rfingers 7.12502
rthumb 6.33449 -56.9529
lclavicle 1.66979e-014 -1.51076e-014
lhumerus -19.7884 -7.03808 92.3451
lradius 20.2633
lwrist 4.47094
lhand -26.1532 -3.89698
lfingers 7.12502
lthumb 0.397744 26.0824
rfemur -13.0872 -3.78219 20.1538
rtibia 21.1311
rfoot -12.9106 -1.23578
rtoes 17.7761
lfemur -12.055 6.4121 -17.8546
ltibia 18.8942
lfoot -11.022 3.29553
ltoes 2.95891
118
root 0.386275 17.5906 -14.0733 5.92567 -0.106293 -1.48432
lowerback -2.26101 -0.732834 0.609303
upperback 3.84127 -1.09245 1.77067
thorax 5.2634 -0.557278 1.41794
lowerneck -11.9223 0.640306 -1.84491
upperneck 34.8034 1.49786 -0.199777
head 13.7745 0.377023 0.468896
rclavicle 1.20265e-014 -2.78299e-014
rhumerus -23.6158 -14.1638 -82.8897
rradius 24.2466
rwrist 31.563
rhand -20.0144 -27.0547
rfingers 7.12502
rthumb 6.32596 -56.9402
lclavicle 1.20265e-014 -2.78299e-014
lhumerus -19.7846 -7.01737 92.324
lradius 20.2819
lwrist 4.48186
lhand -26.1424 -3.87504
lfingers 7.12502
lthumb 0.408223 26.1043
rfemur -13.1356 -3.76704 20.1612
rtibia 21.1707
rfoot -12.9151 -1.25355
rtoes 17.7515
lfemur -12.1203 6.41853 -17.8523
ltibia 18.9618
lfoot -11.0329 3.29028
ltoes 2.92812
119
root 0.387102 17.5895 -14.0779 5.93793 -0.104557 -1.49578
lowerback -2.2257 -0.731107 0.619586
upperback 3.84742 -1.0903 1.77445
thorax 5.24951 -0.555905 1.41663
lowerneck -11.9379 0.642584 -1.83392
upperneck 34.7903 1.50284 -0.212038
head 13.7723 0.379116 0.46284
rclavicle 1.12313e-014 -9.54166e-015
rhumerus -23.6232 -14.1125 -82.8968
rradius 24.28
rwrist 31.5125
rhand -20.0192 -27.0455
rfingers 7.12502
rthumb 6.32123 -56.9312
lclavicle 1.12313e-014 -9.54166e-015
lhumerus -19.7829 -6.99798 92.3027
lradius 20.308
lwrist 4.49304
lhand -26.1256 -3.86662
lfingers 7.12502
lthumb 0.424429 26.1127
rfemur -13.1904 -3.75199 20.1727
rtibia 21.2156
rfoot -12.921 -1.27091
rtoes 17.7267
lfemur -12.1929 6.42773 -17.8467
ltibia 19.0375
lfoot -11.0459 3.28271
ltoes 2.90109
120
root 0.387998 17.5884 -14.083 5.95183 -0.100945 -1.50819
lowerback -2.18452 -0.72907 0.631241
upperback 3.85408 -1.08772 1.77886
thorax 5.23278 -0.554282 1.41529
lowerneck -11.9557 0.644038 -1.82402
upperneck 34.7732 1.5062 -0.222276
head 13.7688 0.380684 0.457544
rclavicle -5.86415e-015 2.18663e-014
rhumerus -23.6282 -14.0618 -82.9025
rradius 24.312
rwrist 31.4649
rhand -20.0303 -27.0321
rfingers 7.12502
rthumb 6.31055 -56.9181
lclavicle -5.86415e-015 2.18663e-014
lhumerus -19.7825 -6.98586 92.2826
lradius 20.3413
lwrist 4.50901
lhand -26.1091 -3.8675
lfingers 7.12502
lthumb 0.440415 26.1118
rfemur -13.2518 -3.73847 20.1854
rtibia 21.2662
rfoot -12.9282 -1.28825
rtoes 17.7106
lfemur -12.2739 6.43788 -17.8403
ltibia 19.1227
lfoot -11.0626 3.27148
ltoes 2.89538
